<svg xmlns="http://www.w3.org/2000/svg" viewBox="0 0 512 512" width="512" height="512">
  <defs>
    <linearGradient id="g" x1="0%" y1="0%" x2="100%" y2="100%">
      <stop offset="0%" stop-color="#FFD700"/>
      <stop offset="30%" stop-color="#F5A623"/>
      <stop offset="60%" stop-color="#D4A017"/>
      <stop offset="100%" stop-color="#B8860B"/>
    </linearGradient>
    <linearGradient id="gl" x1="0%" y1="0%" x2="100%" y2="100%">
      <stop offset="0%" stop-color="#FFF8DC"/>
      <stop offset="50%" stop-color="#FFD700"/>
      <stop offset="100%" stop-color="#DAA520"/>
    </linearGradient>
    <radialGradient id="bg" cx="50%" cy="50%" r="50%">
      <stop offset="0%" stop-color="#1e293b"/>
      <stop offset="100%" stop-color="#0f172a"/>
    </radialGradient>
    <radialGradient id="glow" cx="50%" cy="50%" r="50%">
      <stop offset="0%" stop-color="#FFD700" stop-opacity="0.12"/>
      <stop offset="100%" stop-color="#FFD700" stop-opacity="0"/>
    </radialGradient>
  </defs>
  <circle cx="256" cy="256" r="248" fill="url(#bg)"/>
  <circle cx="256" cy="256" r="240" fill="url(#glow)"/>
  <circle cx="256" cy="256" r="236" fill="none" stroke="#334155" stroke-width="2"/>
  <g transform="translate(256,256)">
    <path d="M0,-150 L10,-52 L150,0 L10,52 L0,150 L-10,52 L-150,0 L-10,-52 Z" fill="url(#g)" opacity="0.85"/>
    <path d="M0,-90 L7,-30 L90,0 L7,30 L0,90 L-7,30 L-90,0 L-7,-30 Z" fill="url(#gl)" opacity="0.5"/>
  </g>
  <circle cx="256" cy="256" r="165" fill="none" stroke="url(#g)" stroke-width="1.5" opacity="0.25" stroke-dasharray="4 6"/>
  <g fill="url(#g)" opacity="0.6">
    <circle cx="256" cy="86" r="4"/><circle cx="256" cy="426" r="4"/>
    <circle cx="86" cy="256" r="4"/><circle cx="426" cy="256" r="4"/>
    <circle cx="136" cy="136" r="3"/><circle cx="376" cy="136" r="3"/>
    <circle cx="136" cy="376" r="3"/><circle cx="376" cy="376" r="3"/>
  </g>
  <text x="256" y="276" text-anchor="middle" dominant-baseline="central"
        font-family="'Noto Serif TC','Songti TC','STSong','SimSun',serif"
        font-size="72" font-weight="700" fill="url(#gl)"
        style="letter-spacing:2px">譯</text>
  <text x="256" y="395" text-anchor="middle" dominant-baseline="central"
        font-family="'Noto Serif TC','KaiTi',serif"
        font-size="18" fill="url(#g)" opacity="0.5"
        style="letter-spacing:8px">八方帶財</text>
</svg>
